<?xml version="1.0" encoding="utf-8"?>
<!-- Generator: Adobe Illustrator 25.2.3, SVG Export Plug-In . SVG Version: 6.00 Build 0)  -->
<svg version="1.1" id="Capa_1" xmlns="http://www.w3.org/2000/svg" xmlns:xlink="http://www.w3.org/1999/xlink" x="0px" y="0px"
	 viewBox="0 0 751 180" style="enable-background:new 0 0 751 180;" xml:space="preserve">
<style type="text/css">
	.st0{fill:#00458A;}
	.st1{fill:#D12429;}
</style>
<g>
	<path class="st0" d="M416.9,19.2v49.9c0,5,0.3,9.4,1,13.3c0.7,4.2,2.4,8.4,5.2,12.6c2.9,4.2,7.5,7.7,13.8,10.4
		c6.1,2.6,14.2,3.9,24,3.9c9.9,0,18-1.3,24.1-3.9c6.2-2.7,10.9-6.1,13.7-10.4c2.8-4.1,4.6-8.3,5.3-12.5c0.7-4.1,1-8.5,1-13.4V20.5
		c-0.1,0-0.9-0.5-2.1-1.4h-21.6v49.5c0,3.5-0.2,6.6-0.5,9.1c-0.3,2.2-1.1,4.3-2.3,6.3c-1.2,1.9-3.1,3.4-5.8,4.6
		c-2.8,1.3-6.8,1.9-11.8,1.9c-4.9,0-8.8-0.6-11.7-1.9c-2.7-1.2-4.6-2.8-5.7-4.6c-1.3-2-2-4.1-2.3-6.3c-0.3-2.4-0.5-5.4-0.5-9.1V19.2
		H416.9z"/>
</g>
<polygon class="st0" points="38,88.3 38,71.7 90.8,71.7 90.8,53.1 38,53.1 38,38.5 93.1,38.5 93.1,19.8 14.3,19.8 14.3,107 94,107 
	94,88.3 "/>
<g>
	<path class="st0" d="M194.4,46.8c-1.3-5.3-3.7-10.1-7-14.1c-3.4-4.1-8-7.3-13.9-9.6c-5.7-2.2-12.8-3.3-21.1-3.3h-48.2V107h52.4
		c7.3,0,13.6-1.3,18.7-3.9c5.2-2.6,9.4-6.1,12.5-10.4c3.1-4.2,5.3-8.8,6.6-13.7c1.3-4.8,1.9-9.8,1.9-14.8
		C196.3,57.8,195.7,51.9,194.4,46.8 M127.9,88.3V38.5h20.7c3,0,5.9,0.3,8.6,0.7c2.5,0.5,4.9,1.5,7.3,3.1c2.3,1.5,4.2,4,5.7,7.3
		c1.6,3.4,2.4,8.1,2.4,13.9c0,5.3-0.7,9.7-2,13c-1.2,3.2-2.9,5.6-5,7.3c-2.1,1.7-4.5,2.9-7,3.5c-2.7,0.7-5.8,1-9.1,1H127.9z"/>
</g>
<rect x="202.5" y="19.8" class="st0" width="23.7" height="87.1"/>
<rect x="617.7" y="19.8" class="st0" width="23.7" height="87.1"/>
<polygon class="st0" points="231.7,19.8 231.7,38.5 263.1,38.5 263.1,107 286.8,107 286.8,38.5 318.2,38.5 318.2,19.8 "/>
<g>
	<path class="st0" d="M454.3,155.5c-3.2-3.8-6.1-7.8-9.1-11.8c-7.9-10.9-15.2-22.1-22.2-33.6c-3.7-6.2-7.3-12.5-10.8-18.8
		c-2.4-4.4-4.9-8.7-6.9-13.3c-1.9-4.3-2.6-9.1-5.8-12.7c2.7-1.5,5-3.5,6.9-6c2.1-2.7,3.4-5.9,4-9.4c0.3-1.5,0.4-3.2,0.4-4.9
		c0-3.7-0.6-7-1.6-9.9c-1.1-3.1-3-5.8-5.5-8.1c-2.5-2.3-5.9-4-10-5.2c-4-1.2-8.6-1.7-14.1-1.7h-56v87h23.6V74.9
		c0-0.1,18.2,0,20.5-0.1c6-0.1,11.8-0.8,14.8,4.1c3.7,6.2,6.9,12.8,10.3,19.1c8.8,16.9,20.9,40.1,31.5,53.4c2.7,3.5,6.4,7.7,6.4,7.8
		l0.9,1.1h26.7L454.3,155.5z M347.4,38.5h27.4c4.2,0,7.3,0.7,9.3,2.2c1.8,1.3,2.7,3.5,2.7,6.6c0,3.4-0.8,5.7-2.5,6.9
		c-1.9,1.4-5.1,2.1-9.5,2.1h-27.4V38.5z"/>
	<path class="st0" d="M605.4,46.8c-1.4-5.3-3.7-10.1-7-14.1c-3.4-4.1-8-7.3-13.9-9.6c-5.7-2.2-12.8-3.3-21.1-3.3l-48.2,0.6V107h52.4
		c7.3,0,13.6-1.3,18.7-3.9c5.2-2.6,9.4-6.1,12.5-10.4c3-4.2,5.3-8.8,6.6-13.7c1.3-4.8,1.9-9.8,1.9-14.8
		C607.4,57.8,606.7,51.9,605.4,46.8 M581.7,76.5c-1.3,3.2-2.9,5.6-5,7.3c-2.1,1.7-4.5,2.9-7,3.5c-2.7,0.7-5.8,1-9.1,1h-21.7V38.5
		h20.7c3,0,5.9,0.3,8.6,0.7c2.5,0.4,4.9,1.5,7.3,3.1c2.3,1.5,4.2,4,5.7,7.3c1.6,3.4,2.4,8.1,2.4,13.9
		C583.7,68.8,583,73.2,581.7,76.5"/>
	<path class="st0" d="M734.2,44.8c-0.3-1.5-0.7-3.2-1.5-5l-0.1-0.2l0,0c-0.9-2.3-2.1-4.4-3.6-6.2c-3-3.7-6.8-6.5-11.2-8.3
		c-4.3-1.8-8.7-3-13-3.6c-4.3-0.6-8.6-0.9-12.8-0.9c-5.3,0-10.3,0.5-14.9,1.5c-4.6,1-8.7,2.5-12.2,4.6c-3.6,2.1-6.4,5-8.4,8.4
		c-2,3.4-3,7.5-3,12.2c0,4.8,1.1,8.8,3.4,11.9c2.2,3.1,5.2,5.5,8.8,7.2c3.5,1.7,7.3,2.9,11.3,3.7c3.8,0.8,8.7,1.6,14.4,2.4
		c4.2,0.5,7.7,1,10.3,1.5c2.6,0.5,5.1,1.1,7.2,1.9c2,0.7,3.6,1.7,4.7,3c1,1.1,1.5,2.5,1.5,4.3c0,1.8-0.4,3.4-1.4,4.7
		c-0.9,1.3-2.3,2.4-4,3.3c-1.8,0.9-3.9,1.5-6.1,1.9c-2.3,0.4-4.9,0.6-7.6,0.6c-7,0-12.6-1.3-16.5-3.7c-3.7-2.3-5.7-5.7-5.9-10.3
		L652,74.8c-1.1,5.9,0.4,11.3,0.5,11.6l0.1,0.3c0.5,1.8,1,3.4,1.7,4.9c1.7,3.7,4.4,6.9,8,9.5c3.5,2.6,8.2,4.6,13.7,6
		c5.5,1.4,12.1,2.1,19.5,2.1c5,0,9.9-0.4,14.6-1.3c4.8-0.9,9.2-2.3,13.3-4.4c4.1-2.1,7.5-5,10-8.7c2.5-3.7,3.8-8.2,3.8-13.5
		c0-5-1.2-9.2-3.6-12.5c-2.3-3.3-5.5-5.8-9.3-7.5c-3.7-1.7-7.6-2.9-11.6-3.7c-3.9-0.8-9-1.5-15-2.2c-4.3-0.5-7.8-1-10.2-1.4
		c-2.4-0.4-4.7-1-6.7-1.7c-1.9-0.7-3.4-1.6-4.5-2.7c-1-1-1.4-2.2-1.4-3.8c0-3.2,1.4-5.5,4.4-7.1c3.2-1.7,7.8-2.6,13.5-2.6
		c6.4,0,11.3,1.2,14.5,3.6c2,1.5,3.5,3.2,4.3,5.1c0.1,0.3,0.4,1.2,0.7,2.4l0,0.2c0,0.1,0,0.3,0.1,0.4l0.2,1.4h0.1l0,0.1L734.2,44.8z
		"/>
	<path class="st1" d="M469.5,160.8h16.1c1.7,0,3.5-0.2,5.3-0.5c1.8-0.3,3.3-0.8,4.8-1.5c1.4-0.7,2.6-1.7,3.4-2.8
		c0.9-1.2,1.3-2.6,1.3-4.3c0-1.1-0.2-2-0.6-3c-0.4-0.9-1-1.7-1.8-2.4c-0.8-0.7-1.7-1.3-2.7-1.7c-1.1-0.5-2.2-0.8-3.5-0.9v-0.1
		c2-0.5,3.7-1.4,4.9-2.6c1.2-1.2,1.9-2.8,1.9-4.6c0-1.8-0.4-3.2-1.3-4.3c-0.9-1.1-2-1.9-3.3-2.5c-1.4-0.6-2.9-1-4.6-1.2
		c-1.7-0.2-3.4-0.3-5.1-0.3h-14.7V160.8z M478.1,134h5.9c0.7,0,1.4,0.1,2.1,0.2c0.7,0.1,1.3,0.3,1.9,0.5c0.6,0.2,1,0.6,1.4,1
		c0.4,0.4,0.5,1,0.5,1.7c0,0.7-0.2,1.2-0.5,1.7c-0.3,0.5-0.7,0.8-1.2,1.1c-0.5,0.3-1.1,0.5-1.8,0.6c-0.6,0.1-1.3,0.2-2,0.2h-6.3V134
		z M478.1,147.2h6.6c0.7,0,1.5,0,2.3,0.1c0.8,0.1,1.6,0.3,2.3,0.5c0.7,0.2,1.3,0.6,1.8,1.1c0.5,0.5,0.7,1.1,0.7,1.9
		c0,0.7-0.2,1.3-0.5,1.8c-0.4,0.5-0.8,0.9-1.4,1.2c-0.6,0.3-1.2,0.5-1.9,0.7c-0.7,0.1-1.4,0.2-2,0.2h-7.8V147.2z M509.2,160.8h27.7
		v-6.7h-19.1v-6.7h17.1v-6.7h-17.1v-6.1h18.1v-6.7h-26.7V160.8z M547.5,160.8h24.7v-6.7h-16.1v-26.2h-8.7V160.8z M582.9,160.8h8.7
		v-26.5h11.2v-6.4h-31.1v6.4h11.2V160.8z M610.5,160.8h8.7v-13.2h4.3l8.2,13.2h10.4l-10-13.9c2.8-0.4,4.9-1.5,6.3-3.1
		c1.4-1.6,2.2-3.6,2.2-5.9c0-1.9-0.4-3.5-1.2-4.8c-0.8-1.3-1.9-2.3-3.2-3.1c-1.4-0.8-2.9-1.3-4.7-1.6c-1.8-0.3-3.7-0.5-5.7-0.5
		h-15.2V160.8z M619.2,134h5.7c0.8,0,1.6,0,2.4,0.1c0.8,0.1,1.5,0.3,2.2,0.5c0.6,0.3,1.1,0.6,1.6,1.1c0.4,0.5,0.6,1.2,0.6,2
		c0,0.9-0.2,1.6-0.7,2.1c-0.5,0.5-1,0.9-1.8,1.1c-0.7,0.2-1.5,0.4-2.4,0.4c-0.9,0-1.7,0.1-2.5,0.1h-5.1V134z M645.8,160.8h9.6l3.3-7
		h15.3l3.4,7h9.8L670,127.9h-7.2L645.8,160.8z M671,147.7h-9.6l4.8-10.2L671,147.7z M660.9,125.5h7.3l9.6-6.7h-11.3L660.9,125.5z
		 M694.4,160.8h8.7v-23.4h0.1l17.2,23.4h11.3v-32.9H723v22.9h-0.1l-16.7-22.9h-11.8V160.8z"/>
</g>
</svg>
